<svg width="250" height="250" viewBox="0 0 250 250" fill="none" xmlns="http://www.w3.org/2000/svg">
<path d="M125 6C190.722 6 244 59.2781 244 125C244 190.722 190.722 244 125 244C59.2781 244 6 190.722 6 125C6 59.2781 59.2781 6 125 6Z" fill="#EB5C20" stroke="#EB5C20" stroke-width="10.3972" stroke-linecap="round" stroke-linejoin="round"/>
<g clip-path="url(#clip0_15_9)">
<path d="M166.832 53.3322C167.256 52.9073 167.759 52.5702 168.314 52.3402C168.868 52.1102 169.462 51.9918 170.062 51.9918C170.663 51.9918 171.257 52.1102 171.811 52.3402C172.365 52.5702 172.869 52.9073 173.293 53.3322L200.668 80.7072C201.093 81.131 201.43 81.6345 201.66 82.1888C201.89 82.7431 202.008 83.3373 202.008 83.9375C202.008 84.5376 201.89 85.1318 201.66 85.6861C201.43 86.2404 201.093 86.7439 200.668 87.1677L109.418 178.418C108.98 178.853 108.458 179.194 107.885 179.421L62.2597 197.671C61.4306 198.003 60.5223 198.085 59.6474 197.905C58.7725 197.726 57.9695 197.293 57.338 196.662C56.7065 196.03 56.2742 195.227 56.0948 194.353C55.9153 193.478 55.9966 192.569 56.3284 191.74L74.5784 146.115C74.8059 145.542 75.1474 145.02 75.5822 144.582L166.832 53.3322V53.3322ZM158.264 74.8125L179.187 95.7361L190.986 83.9375L170.062 63.0139L158.264 74.8125ZM172.736 102.187L151.812 81.2638L92.4999 140.576V143.25H97.0624C98.2725 143.25 99.433 143.731 100.289 144.586C101.144 145.442 101.625 146.602 101.625 147.812V152.375H106.187C107.397 152.375 108.558 152.856 109.414 153.711C110.269 154.567 110.75 155.727 110.75 156.937V161.5H113.424L172.736 102.187V102.187ZM83.6669 149.409L82.6997 150.377L68.7567 185.243L103.623 171.3L104.591 170.333C103.72 170.008 102.97 169.425 102.44 168.661C101.91 167.898 101.626 166.992 101.625 166.062V161.5H97.0624C95.8524 161.5 94.6919 161.019 93.8363 160.164C92.9806 159.308 92.4999 158.148 92.4999 156.937V152.375H87.9374C87.0083 152.374 86.1016 152.09 85.3384 151.56C84.5753 151.03 83.9921 150.28 83.6669 149.409V149.409Z" fill="white"/>
</g>
<defs>
<clipPath id="clip0_15_9">
<rect width="146" height="146" fill="white" transform="translate(56 52)"/>
</clipPath>
</defs>
</svg>
